<svg xmlns="http://www.w3.org/2000/svg" width="1246" height="1546" viewBox="0 0 1246 1546" font-family="Helvetica, Arial, sans-serif">
<title>Staging deploy pipeline</title>
<defs><marker id="arrow" viewBox="0 0 10 10" refX="9" refY="5" markerWidth="8" markerHeight="8" orient="auto"><path d="M0,0 L10,5 L0,10 z" fill="#495057"/></marker></defs>
<rect width="100%" height="100%" fill="#ffffff"/>
<text x="40" y="62" font-size="24" font-weight="700" fill="#1e1e1e">Staging deploy pipeline</text>
<text x="40" y="86" font-size="14" fill="#495057">Merge to main → keyless auth → migrate → candidate → smoke test → promote or keep the previous revision (P006, ADR 0007)</text>
<rect x="40" y="114" width="276" height="1346" rx="12" fill="#f8f9fa" stroke="#868e96" stroke-width="1.5" stroke-dasharray="8 6"/>
<text x="54" y="135" font-size="14" font-weight="700" fill="#495057">GitHub</text>
<rect x="352" y="114" width="542" height="1346" rx="12" fill="#f8f9fa" stroke="#868e96" stroke-width="1.5" stroke-dasharray="8 6"/>
<text x="366" y="135" font-size="14" font-weight="700" fill="#495057">Google Cloud staging: deploy path</text>
<rect x="930" y="114" width="276" height="1346" rx="12" fill="#f8f9fa" stroke="#868e96" stroke-width="1.5" stroke-dasharray="8 6"/>
<text x="944" y="135" font-size="14" font-weight="700" fill="#495057">What the job and the API use</text>
<line x1="178" y1="228" x2="178" y2="278" stroke="#495057" stroke-width="1.8" marker-end="url(#arrow)"/>
<line x1="178" y1="334" x2="178" y2="384" stroke="#495057" stroke-width="1.8" marker-end="url(#arrow)"/>
<line x1="178" y1="471" x2="178" y2="536.5" stroke="#495057" stroke-width="1.8" marker-end="url(#arrow)"/>
<line x1="298" y1="564.5" x2="503" y2="564.5" stroke="#495057" stroke-width="1.8" marker-end="url(#arrow)"/>
<line x1="623" y1="608" x2="623" y2="658" stroke="#495057" stroke-width="1.8" marker-end="url(#arrow)"/>
<line x1="623" y1="714" x2="623" y2="764" stroke="#495057" stroke-width="1.8" marker-end="url(#arrow)"/>
<line x1="623" y1="830" x2="623" y2="880" stroke="#495057" stroke-width="1.8" marker-end="url(#arrow)"/>
<line x1="623" y1="967" x2="623" y2="1017" stroke="#495057" stroke-width="1.8" marker-end="url(#arrow)"/>
<line x1="623" y1="1104" x2="623" y2="1154" stroke="#495057" stroke-width="1.8" marker-end="url(#arrow)"/>
<line x1="623" y1="1220" x2="623" y2="1270" stroke="#495057" stroke-width="1.8" marker-end="url(#arrow)"/>
<line x1="623" y1="1326" x2="490" y2="1381" stroke="#495057" stroke-width="1.8" marker-end="url(#arrow)"/>
<line x1="623" y1="1326" x2="756" y2="1376" stroke="#495057" stroke-width="1.8" marker-end="url(#arrow)"/>
<line x1="1068" y1="830" x2="1068" y2="890.5" stroke="#495057" stroke-width="1.8" marker-end="url(#arrow)"/>
<line x1="743" y1="923.5" x2="948" y2="923.5" stroke="#495057" stroke-width="1.8" marker-end="url(#arrow)"/>
<line x1="623" y1="1017" x2="1068" y2="956.5" stroke="#495057" stroke-width="1.8" marker-end="url(#arrow)"/>
<line x1="948" y1="1060.5" x2="743" y2="1060.5" stroke="#495057" stroke-width="1.8" marker-end="url(#arrow)"/>
<line x1="623" y1="1104" x2="1068" y2="1154" stroke="#495057" stroke-width="1.8" marker-end="url(#arrow)"/>
<rect x="58" y="162" width="240" height="66" rx="10" fill="#eebefa" stroke="#9c36b5" stroke-width="2"/>
<text x="178" font-size="16" fill="#1e1e1e" text-anchor="middle">
<tspan x="178" y="190.2">GitHub PR: container-ci</tspan>
<tspan x="178" y="211">(build + smoke, no secrets)</tspan>
</text>
<rect x="58" y="278" width="240" height="56" rx="10" fill="#a5d8ff" stroke="#1971c2" stroke-width="2"/>
<text x="178" font-size="16" fill="#1e1e1e" text-anchor="middle">
<tspan x="178" y="311.6">Merge to main</tspan>
</text>
<rect x="58" y="384" width="240" height="87" rx="10" fill="#eebefa" stroke="#9c36b5" stroke-width="2"/>
<text x="178" font-size="16" fill="#1e1e1e" text-anchor="middle">
<tspan x="178" y="412.3">GitHub Actions</tspan>
<tspan x="178" y="433.1">deploy-staging (environment:</tspan>
<tspan x="178" y="453.9">staging)</tspan>
</text>
<rect x="58" y="536.5" width="240" height="56" rx="10" fill="#ffc9c9" stroke="#e03131" stroke-width="2"/>
<text x="178" font-size="16" fill="#1e1e1e" text-anchor="middle">
<tspan x="178" y="570.1">GitHub OIDC token</tspan>
</text>
<rect x="503" y="521" width="240" height="87" rx="10" fill="#ffc9c9" stroke="#e03131" stroke-width="2"/>
<text x="623" font-size="16" fill="#1e1e1e" text-anchor="middle">
<tspan x="623" y="549.3">Workload Identity Federation</tspan>
<tspan x="623" y="570.1">(this repo + main + staging</tspan>
<tspan x="623" y="590.9">only)</tspan>
</text>
<rect x="503" y="658" width="240" height="56" rx="10" fill="#ffc9c9" stroke="#e03131" stroke-width="2"/>
<text x="623" font-size="16" fill="#1e1e1e" text-anchor="middle">
<tspan x="623" y="691.6">sa-deploy SA (no keys)</tspan>
</text>
<rect x="503" y="764" width="240" height="66" rx="10" fill="#ffd8a8" stroke="#e8590c" stroke-width="2"/>
<text x="623" font-size="16" fill="#1e1e1e" text-anchor="middle">
<tspan x="623" y="792.2">Artifact Registry: image tag =</tspan>
<tspan x="623" y="813">commit SHA</tspan>
</text>
<rect x="503" y="880" width="240" height="87" rx="10" fill="#b2f2bb" stroke="#2f9e44" stroke-width="2"/>
<text x="623" font-size="16" fill="#1e1e1e" text-anchor="middle">
<tspan x="623" y="908.3">Cloud Run Job:</tspan>
<tspan x="623" y="929.1">saferoute-migrate</tspan>
<tspan x="623" y="949.9">(sa-migration)</tspan>
</text>
<rect x="503" y="1017" width="240" height="87" rx="10" fill="#b2f2bb" stroke="#2f9e44" stroke-width="2"/>
<text x="623" font-size="16" fill="#1e1e1e" text-anchor="middle">
<tspan x="623" y="1045.3">Cloud Run service</tspan>
<tspan x="623" y="1066.1">saferoute-api</tspan>
<tspan x="623" y="1086.9">(sa-api-runtime)</tspan>
</text>
<rect x="503" y="1154" width="240" height="66" rx="10" fill="#b2f2bb" stroke="#2f9e44" stroke-width="2"/>
<text x="623" font-size="16" fill="#1e1e1e" text-anchor="middle">
<tspan x="623" y="1182.2">Candidate revision (no</tspan>
<tspan x="623" y="1203">traffic)</tspan>
</text>
<rect x="503" y="1270" width="240" height="56" rx="10" fill="#ffc9c9" stroke="#e03131" stroke-width="2"/>
<text x="623" font-size="16" fill="#1e1e1e" text-anchor="middle">
<tspan x="623" y="1303.6">Smoke tests</tspan>
</text>
<rect x="370" y="1381" width="240" height="56" rx="10" fill="#b2f2bb" stroke="#2f9e44" stroke-width="2"/>
<text x="490" font-size="16" fill="#1e1e1e" text-anchor="middle">
<tspan x="490" y="1414.6">Promote traffic</tspan>
</text>
<rect x="636" y="1376" width="240" height="66" rx="10" fill="#b2f2bb" stroke="#2f9e44" stroke-width="2"/>
<text x="756" font-size="16" fill="#1e1e1e" text-anchor="middle">
<tspan x="756" y="1404.2">Keep previous revision</tspan>
<tspan x="756" y="1425">(rollback)</tspan>
</text>
<rect x="948" y="764" width="240" height="66" rx="10" fill="#ffc9c9" stroke="#e03131" stroke-width="2"/>
<text x="1068" font-size="16" fill="#1e1e1e" text-anchor="middle">
<tspan x="1068" y="792.2">Secret Manager: database</tspan>
<tspan x="1068" y="813">URL</tspan>
</text>
<rect x="948" y="890.5" width="240" height="66" rx="10" fill="#ffd8a8" stroke="#e8590c" stroke-width="2"/>
<text x="1068" font-size="16" fill="#1e1e1e" text-anchor="middle">
<tspan x="1068" y="918.7">Cloud SQL PostgreSQL +</tspan>
<tspan x="1068" y="939.5">PostGIS</tspan>
</text>
<rect x="948" y="1032.5" width="240" height="56" rx="10" fill="#a5d8ff" stroke="#1971c2" stroke-width="2"/>
<text x="1068" font-size="16" fill="#1e1e1e" text-anchor="middle">
<tspan x="1068" y="1066.1">Android app (later)</tspan>
</text>
<rect x="948" y="1154" width="240" height="66" rx="10" fill="#e9ecef" stroke="#495057" stroke-width="2"/>
<text x="1068" font-size="16" fill="#1e1e1e" text-anchor="middle">
<tspan x="1068" y="1182.2">Firebase public keys</tspan>
<tspan x="1068" y="1203">(JWKS)</tspan>
</text>
<rect x="131.3" y="242" width="93.4" height="22" rx="4" fill="#ffffff" fill-opacity="0.95" stroke="#ced4da" stroke-width="1"/>
<text x="178" y="257.5" font-size="13" fill="#1e1e1e" text-anchor="middle">Rahul merges</text>
<rect x="580.3" y="622" width="85.3" height="22" rx="4" fill="#ffffff" fill-opacity="0.95" stroke="#ced4da" stroke-width="1"/>
<text x="623" y="637.5" font-size="13" fill="#1e1e1e" text-anchor="middle">1-hour token</text>
<rect x="583.1" y="728" width="79.9" height="22" rx="4" fill="#ffffff" fill-opacity="0.95" stroke="#ced4da" stroke-width="1"/>
<text x="623" y="743.5" font-size="13" fill="#1e1e1e" text-anchor="middle">push image</text>
<rect x="590.2" y="844" width="65.6" height="22" rx="4" fill="#ffffff" fill-opacity="0.95" stroke="#ced4da" stroke-width="1"/>
<text x="623" y="859.5" font-size="13" fill="#1e1e1e" text-anchor="middle">by digest</text>
<rect x="572.2" y="981" width="101.7" height="22" rx="4" fill="#ffffff" fill-opacity="0.95" stroke="#ced4da" stroke-width="1"/>
<text x="623" y="996.5" font-size="13" fill="#1e1e1e" text-anchor="middle">migrations first</text>
<rect x="578.8" y="1118" width="88.4" height="22" rx="4" fill="#ffffff" fill-opacity="0.95" stroke="#ced4da" stroke-width="1"/>
<text x="623" y="1133.5" font-size="13" fill="#1e1e1e" text-anchor="middle">new revision</text>
<rect x="536.5" y="1342.5" width="40.1" height="22" rx="4" fill="#ffffff" fill-opacity="0.95" stroke="#ced4da" stroke-width="1"/>
<text x="556.5" y="1358" font-size="13" fill="#1e1e1e" text-anchor="middle">pass</text>
<rect x="674.1" y="1340" width="30.7" height="22" rx="4" fill="#ffffff" fill-opacity="0.95" stroke="#ced4da" stroke-width="1"/>
<text x="689.5" y="1355.5" font-size="13" fill="#1e1e1e" text-anchor="middle">fail</text>
<rect x="1009.9" y="849.3" width="116.3" height="22" rx="4" fill="#ffffff" fill-opacity="0.95" stroke="#ced4da" stroke-width="1"/>
<text x="1068" y="864.8" font-size="13" fill="#1e1e1e" text-anchor="middle">DATABASE_URL</text>
<rect x="803.6" y="912.5" width="83.8" height="22" rx="4" fill="#ffffff" fill-opacity="0.95" stroke="#ced4da" stroke-width="1"/>
<text x="845.5" y="928" font-size="13" fill="#1e1e1e" text-anchor="middle">expand-only</text>
<rect x="786.1" y="1049.5" width="118.9" height="22" rx="4" fill="#ffffff" fill-opacity="0.95" stroke="#ced4da" stroke-width="1"/>
<text x="845.5" y="1065" font-size="13" fill="#1e1e1e" text-anchor="middle">HTTPS + ID token</text>
<rect x="801.4" y="1118" width="88.2" height="22" rx="4" fill="#ffffff" fill-opacity="0.95" stroke="#ced4da" stroke-width="1"/>
<text x="845.5" y="1133.5" font-size="13" fill="#1e1e1e" text-anchor="middle">verify tokens</text>
<rect x="40" y="1481" width="16" height="16" rx="3" fill="#a5d8ff" stroke="#1971c2" stroke-width="1.5"/>
<text x="62" y="1494" font-size="13" fill="#495057">App / UI</text>
<rect x="134.8" y="1481" width="16" height="16" rx="3" fill="#b2f2bb" stroke="#2f9e44" stroke-width="1.5"/>
<text x="156.8" y="1494" font-size="13" fill="#495057">Service</text>
<rect x="228.3" y="1481" width="16" height="16" rx="3" fill="#ffd8a8" stroke="#e8590c" stroke-width="1.5"/>
<text x="250.3" y="1494" font-size="13" fill="#495057">Data</text>
<rect x="303.1" y="1481" width="16" height="16" rx="3" fill="#ffc9c9" stroke="#e03131" stroke-width="1.5"/>
<text x="325.1" y="1494" font-size="13" fill="#495057">Security / emergency</text>
<rect x="476.7" y="1481" width="16" height="16" rx="3" fill="#eebefa" stroke="#9c36b5" stroke-width="1.5"/>
<text x="498.7" y="1494" font-size="13" fill="#495057">Infra / workflow</text>
<rect x="618.3" y="1481" width="16" height="16" rx="3" fill="#e9ecef" stroke="#495057" stroke-width="1.5"/>
<text x="640.3" y="1494" font-size="13" fill="#495057">External</text>
</svg>
