<svg xmlns="http://www.w3.org/2000/svg" width="1562" height="1511" viewBox="0 0 1562 1511" font-family="Helvetica, Arial, sans-serif">
<title>Routing infrastructure: from OpenStreetMap to private OSRM services</title>
<defs><marker id="arrow" viewBox="0 0 10 10" refX="9" refY="5" markerWidth="8" markerHeight="8" orient="auto"><path d="M0,0 L10,5 L0,10 z" fill="#495057"/></marker></defs>
<rect width="100%" height="100%" fill="#ffffff"/>
<text x="40" y="62" font-size="24" font-weight="700" fill="#1e1e1e">Routing infrastructure: from OpenStreetMap to private OSRM services</text>
<text x="40" y="86" font-size="14" fill="#495057">Built and measured in P012a (left and middle); the staging services and their callers come in the next pull requests (right) (ADR 0020)</text>
<rect x="40" y="114" width="562" height="1311" rx="12" fill="#f8f9fa" stroke="#868e96" stroke-width="1.5" stroke-dasharray="8 6"/>
<text x="54" y="135" font-size="14" font-weight="700" fill="#495057">Data and image build (P012a)</text>
<rect x="638" y="114" width="286" height="1311" rx="12" fill="#f8f9fa" stroke="#868e96" stroke-width="1.5" stroke-dasharray="8 6"/>
<text x="652" y="135" font-size="14" font-weight="700" fill="#495057">Checks (P012a)</text>
<rect x="960" y="114" width="562" height="1311" rx="12" fill="#f8f9fa" stroke="#868e96" stroke-width="1.5" stroke-dasharray="8 6"/>
<text x="974" y="135" font-size="14" font-weight="700" fill="#495057">Google Cloud staging (planned: P012a part 2, P012b, P012c)</text>
<line x1="321" y1="249" x2="321" y2="299" stroke="#495057" stroke-width="1.8" marker-end="url(#arrow)"/>
<line x1="321" y1="386" x2="321" y2="436" stroke="#495057" stroke-width="1.8" marker-end="url(#arrow)"/>
<line x1="321" y1="523" x2="183" y2="573" stroke="#495057" stroke-width="1.8" marker-end="url(#arrow)"/>
<line x1="183" y1="681" x2="183" y2="731" stroke="#495057" stroke-width="1.8" marker-end="url(#arrow)"/>
<line x1="321" y1="523" x2="459" y2="583.5" stroke="#495057" stroke-width="1.8" marker-end="url(#arrow)"/>
<line x1="781" y1="670.5" x2="781" y2="731" stroke="#495057" stroke-width="1.8" marker-end="url(#arrow)"/>
<line x1="308" y1="785" x2="656" y2="785" stroke="#495057" stroke-width="1.8" marker-end="url(#arrow)"/>
<line x1="183" y1="839" x2="781" y2="889" stroke="#495057" stroke-width="1.8" marker-end="url(#arrow)"/>
<line x1="183" y1="839" x2="1241" y2="899.5" stroke="#495057" stroke-width="1.8" marker-end="url(#arrow)"/>
<line x1="1241" y1="965.5" x2="1103" y2="1026" stroke="#495057" stroke-width="1.8" marker-end="url(#arrow)"/>
<line x1="1241" y1="965.5" x2="1379" y2="1026" stroke="#495057" stroke-width="1.8" marker-end="url(#arrow)"/>
<line x1="1103" y1="1154" x2="1103" y2="1204" stroke="#495057" stroke-width="1.8" marker-end="url(#arrow)"/>
<line x1="1379" y1="1154" x2="1103" y2="1204" stroke="#495057" stroke-width="1.8" marker-end="url(#arrow)"/>
<line x1="1379" y1="1204" x2="1103" y2="1154" stroke="#495057" stroke-width="1.8" marker-end="url(#arrow)"/>
<line x1="1379" y1="1204" x2="1379" y2="1154" stroke="#495057" stroke-width="1.8" marker-end="url(#arrow)"/>
<line x1="459" y1="670.5" x2="1379" y2="1204" stroke="#495057" stroke-width="1.8" marker-end="url(#arrow)"/>
<line x1="1241" y1="1341" x2="1379" y2="1291" stroke="#495057" stroke-width="1.8" marker-end="url(#arrow)"/>
<rect x="196" y="162" width="250" height="87" rx="10" fill="#e9ecef" stroke="#495057" stroke-width="2"/>
<text x="321" font-size="16" fill="#1e1e1e" text-anchor="middle">
<tspan x="321" y="190.3">Geofabrik extract of</tspan>
<tspan x="321" y="211.1">OpenStreetMap (ODbL 1.0),</tspan>
<tspan x="321" y="231.9">dated, MD5 checked</tspan>
</text>
<rect x="196" y="299" width="250" height="87" rx="10" fill="#eebefa" stroke="#9c36b5" stroke-width="2"/>
<text x="321" font-size="16" fill="#1e1e1e" text-anchor="middle">
<tspan x="321" y="327.3">build-image.mjs: allowlisted</tspan>
<tspan x="321" y="348.1">URL, metadata.json, image</tspan>
<tspan x="321" y="368.9">labels</tspan>
</text>
<rect x="196" y="436" width="250" height="87" rx="10" fill="#b2f2bb" stroke="#2f9e44" stroke-width="2"/>
<text x="321" font-size="16" fill="#1e1e1e" text-anchor="middle">
<tspan x="321" y="464.3">Stage 1: osmium cuts the</tspan>
<tspan x="321" y="485.1">extent (state boundary</tspan>
<tspan x="321" y="505.9">relation, a box, or the sample)</tspan>
</text>
<rect x="58" y="573" width="250" height="108" rx="10" fill="#b2f2bb" stroke="#2f9e44" stroke-width="2"/>
<text x="183" font-size="16" fill="#1e1e1e" text-anchor="middle">
<tspan x="183" y="601.4">Stage 2: osrm-extract,</tspan>
<tspan x="183" y="622.2">osrm-partition,</tspan>
<tspan x="183" y="643">osrm-customize (MLD) for</tspan>
<tspan x="183" y="663.8">foot or car</tspan>
</text>
<rect x="58" y="731" width="250" height="108" rx="10" fill="#ffd8a8" stroke="#e8590c" stroke-width="2"/>
<text x="183" font-size="16" fill="#1e1e1e" text-anchor="middle">
<tspan x="183" y="759.4">Image saferoute-osrm: one</tspan>
<tspan x="183" y="780.2">profile, graph baked in,</tspan>
<tspan x="183" y="801">osrm-routed as non-root, log</tspan>
<tspan x="183" y="821.8">level WARNING</tspan>
</text>
<rect x="334" y="583.5" width="250" height="87" rx="10" fill="#ffd8a8" stroke="#e8590c" stroke-width="2"/>
<text x="459" font-size="16" fill="#1e1e1e" text-anchor="middle">
<tspan x="459" y="611.8">state-extent.json: simplified</tspan>
<tspan x="459" y="632.6">outline for the API's</tspan>
<tspan x="459" y="653.4">inside/outside answer</tspan>
</text>
<rect x="656" y="583.5" width="250" height="87" rx="10" fill="#eebefa" stroke="#9c36b5" stroke-width="2"/>
<text x="781" font-size="16" fill="#1e1e1e" text-anchor="middle">
<tspan x="781" y="611.8">osrm-ci: the whole pipeline on</tspan>
<tspan x="781" y="632.6">a 79 KB sample fixture, both</tspan>
<tspan x="781" y="653.4">profiles</tspan>
</text>
<rect x="656" y="731" width="250" height="108" rx="10" fill="#ffc9c9" stroke="#e03131" stroke-width="2"/>
<text x="781" font-size="16" fill="#1e1e1e" text-anchor="middle">
<tspan x="781" y="759.4">local-smoke.mjs: routes</tspan>
<tspan x="781" y="780.2">between public places, limits,</tspan>
<tspan x="781" y="801">user, labels, NO request path</tspan>
<tspan x="781" y="821.8">in the log</tspan>
</text>
<rect x="656" y="889" width="250" height="87" rx="10" fill="#eebefa" stroke="#9c36b5" stroke-width="2"/>
<text x="781" font-size="16" fill="#1e1e1e" text-anchor="middle">
<tspan x="781" y="917.3">measure.mjs: p50/p95,</tspan>
<tspan x="781" y="938.1">NoRoute rate, memory</tspan>
<tspan x="781" y="958.9">(seeded random points)</tspan>
</text>
<rect x="1116" y="899.5" width="250" height="66" rx="10" fill="#ffd8a8" stroke="#e8590c" stroke-width="2"/>
<text x="1241" font-size="16" fill="#1e1e1e" text-anchor="middle">
<tspan x="1241" y="927.7">Artifact Registry:</tspan>
<tspan x="1241" y="948.5">osrm-&lt;profile&gt;-&lt;extract date&gt;</tspan>
</text>
<rect x="978" y="1026" width="250" height="128" rx="10" fill="#b2f2bb" stroke="#2f9e44" stroke-width="2"/>
<text x="1103" font-size="16" fill="#1e1e1e" text-anchor="middle">
<tspan x="1103" y="1054">Cloud Run</tspan>
<tspan x="1103" y="1074.8">saferoute-osrm-walking:</tspan>
<tspan x="1103" y="1095.6">private, role-less</tspan>
<tspan x="1103" y="1116.4">sa-osrm-runtime, scales to</tspan>
<tspan x="1103" y="1137.2">zero</tspan>
</text>
<rect x="1254" y="1026" width="250" height="128" rx="10" fill="#b2f2bb" stroke="#2f9e44" stroke-width="2"/>
<text x="1379" font-size="16" fill="#1e1e1e" text-anchor="middle">
<tspan x="1379" y="1054">Cloud Run</tspan>
<tspan x="1379" y="1074.8">saferoute-osrm-driving:</tspan>
<tspan x="1379" y="1095.6">private, role-less</tspan>
<tspan x="1379" y="1116.4">sa-osrm-runtime, scales to</tspan>
<tspan x="1379" y="1137.2">zero</tspan>
</text>
<rect x="978" y="1204" width="250" height="87" rx="10" fill="#ffc9c9" stroke="#e03131" stroke-width="2"/>
<text x="1103" font-size="16" fill="#1e1e1e" text-anchor="middle">
<tspan x="1103" y="1232.3">Platform request logs of both</tspan>
<tspan x="1103" y="1253.1">services excluded: their URLs</tspan>
<tspan x="1103" y="1273.9">hold coordinates</tspan>
</text>
<rect x="1254" y="1204" width="250" height="87" rx="10" fill="#b2f2bb" stroke="#2f9e44" stroke-width="2"/>
<text x="1379" font-size="16" fill="#1e1e1e" text-anchor="middle">
<tspan x="1379" y="1232.3">saferoute-api (sa-api-runtime):</tspan>
<tspan x="1379" y="1253.1">run.invoker + Google ID token,</tspan>
<tspan x="1379" y="1273.9">POST /v1/routes (P012b)</tspan>
</text>
<rect x="1116" y="1341" width="250" height="66" rx="10" fill="#a5d8ff" stroke="#1971c2" stroke-width="2"/>
<text x="1241" font-size="16" fill="#1e1e1e" text-anchor="middle">
<tspan x="1241" y="1369.2">Android app: directions</tspan>
<tspan x="1241" y="1390">(P012c). It never calls OSRM</tspan>
</text>
<rect x="286.4" y="263" width="69.2" height="22" rx="4" fill="#ffffff" fill-opacity="0.95" stroke="#ced4da" stroke-width="1"/>
<text x="321" y="278.5" font-size="13" fill="#1e1e1e" text-anchor="middle">download</text>
<rect x="634.9" y="858.3" width="154.2" height="22" rx="4" fill="#ffffff" fill-opacity="0.95" stroke="#ced4da" stroke-width="1"/>
<text x="712" y="873.8" font-size="13" fill="#1e1e1e" text-anchor="middle">push (manual workflow)</text>
<rect x="1137.5" y="1168" width="207" height="22" rx="4" fill="#ffffff" fill-opacity="0.95" stroke="#ced4da" stroke-width="1"/>
<text x="1241" y="1183.5" font-size="13" fill="#1e1e1e" text-anchor="middle">IAM, coordinates in the URL path</text>
<rect x="851.6" y="926.3" width="134.7" height="22" rx="4" fill="#ffffff" fill-opacity="0.95" stroke="#ced4da" stroke-width="1"/>
<text x="919" y="941.8" font-size="13" fill="#1e1e1e" text-anchor="middle">outside covered area</text>
<rect x="1216.3" y="1305" width="187.5" height="22" rx="4" fill="#ffffff" fill-opacity="0.95" stroke="#ced4da" stroke-width="1"/>
<text x="1310" y="1320.5" font-size="13" fill="#1e1e1e" text-anchor="middle">coordinates in the POST body</text>
<rect x="40" y="1446" width="16" height="16" rx="3" fill="#a5d8ff" stroke="#1971c2" stroke-width="1.5"/>
<text x="62" y="1459" font-size="13" fill="#495057">App / UI</text>
<rect x="134.8" y="1446" width="16" height="16" rx="3" fill="#b2f2bb" stroke="#2f9e44" stroke-width="1.5"/>
<text x="156.8" y="1459" font-size="13" fill="#495057">Service</text>
<rect x="228.3" y="1446" width="16" height="16" rx="3" fill="#ffd8a8" stroke="#e8590c" stroke-width="1.5"/>
<text x="250.3" y="1459" font-size="13" fill="#495057">Data</text>
<rect x="303.1" y="1446" width="16" height="16" rx="3" fill="#ffc9c9" stroke="#e03131" stroke-width="1.5"/>
<text x="325.1" y="1459" font-size="13" fill="#495057">Security / emergency</text>
<rect x="476.7" y="1446" width="16" height="16" rx="3" fill="#eebefa" stroke="#9c36b5" stroke-width="1.5"/>
<text x="498.7" y="1459" font-size="13" fill="#495057">Infra / workflow</text>
<rect x="618.3" y="1446" width="16" height="16" rx="3" fill="#e9ecef" stroke="#495057" stroke-width="1.5"/>
<text x="640.3" y="1459" font-size="13" fill="#495057">External</text>
</svg>
